<svg width="2580" height="400" viewBox="0 0 2580 400" fill="none" xmlns="http://www.w3.org/2000/svg">
    <rect x="0.5" y="0.5" width="2579" height="397.671" fill="white"/>
    <rect x="0.5" y="0.5" width="2579" height="397.671" stroke="white"/>
    <line y1="-0.5" x2="398.671" y2="-0.5" transform="matrix(-0.000296535 -1 1 -0.000523676 31.1182 398.671)"
          stroke="black" stroke-opacity="0.1"/>
    <line y1="-0.5" x2="398.671" y2="-0.5" transform="matrix(-0.000296535 -1 1 -0.000523676 61.1182 400)" stroke="black"
          stroke-opacity="0.1"/>
    <line y1="-0.5" x2="398.671" y2="-0.5" transform="matrix(-0.000296535 -1 1 -0.000523676 91.1182 398.671)"
          stroke="black" stroke-opacity="0.1"/>
    <line y1="-0.5" x2="398.671" y2="-0.5" transform="matrix(-0.000296535 -1 1 -0.000523676 121.118 400)" stroke="black"
          stroke-opacity="0.1"/>
    <line y1="-0.5" x2="398.671" y2="-0.5" transform="matrix(-0.000296535 -1 1 -0.000523676 151.118 400)" stroke="black"
          stroke-opacity="0.1"/>
    <line y1="-0.5" x2="398.671" y2="-0.5" transform="matrix(-0.000296535 -1 1 -0.000523676 181.118 398.671)"
          stroke="black" stroke-opacity="0.1"/>
    <line y1="-0.5" x2="398.671" y2="-0.5" transform="matrix(-0.000296535 -1 1 -0.000523676 211.118 400)" stroke="black"
          stroke-opacity="0.1"/>
    <line y1="-0.5" x2="398.671" y2="-0.5" transform="matrix(-0.000296535 -1 1 -0.000523676 241.118 400)" stroke="black"
          stroke-opacity="0.1"/>
    <line y1="-0.5" x2="398.671" y2="-0.5" transform="matrix(-0.000296535 -1 1 -0.000523676 271.118 398.671)"
          stroke="black" stroke-opacity="0.1"/>
    <line y1="-0.5" x2="398.671" y2="-0.5" transform="matrix(-0.000296535 -1 1 -0.000523676 301.118 400)" stroke="black"
          stroke-opacity="0.1"/>
    <line y1="-0.5" x2="398.671" y2="-0.5" transform="matrix(-0.000296535 -1 1 -0.000523676 331.118 400)" stroke="black"
          stroke-opacity="0.1"/>
    <line y1="-0.5" x2="398.671" y2="-0.5" transform="matrix(-0.000296535 -1 1 -0.000523676 361.118 398.671)"
          stroke="black" stroke-opacity="0.1"/>
    <line y1="-0.5" x2="398.671" y2="-0.5" transform="matrix(-0.000296535 -1 1 -0.000523676 391.118 400)" stroke="black"
          stroke-opacity="0.1"/>
    <line y1="-0.5" x2="398.671" y2="-0.5" transform="matrix(-0.000296535 -1 1 -0.000523676 421.118 400)" stroke="black"
          stroke-opacity="0.1"/>
    <line y1="-0.5" x2="398.671" y2="-0.5" transform="matrix(-0.000296535 -1 1 -0.000523676 451.118 398.671)"
          stroke="black" stroke-opacity="0.1"/>
    <line y1="-0.5" x2="398.671" y2="-0.5" transform="matrix(-0.000296535 -1 1 -0.000523676 481.118 400)" stroke="black"
          stroke-opacity="0.1"/>
    <line y1="-0.5" x2="398.671" y2="-0.5" transform="matrix(-0.000296535 -1 1 -0.000523676 511.118 400)" stroke="black"
          stroke-opacity="0.1"/>
    <line y1="-0.5" x2="398.671" y2="-0.5" transform="matrix(-0.000296535 -1 1 -0.000523676 541.118 398.671)"
          stroke="black" stroke-opacity="0.1"/>
    <line y1="-0.5" x2="398.671" y2="-0.5" transform="matrix(-0.000296535 -1 1 -0.000523676 571.118 400)" stroke="black"
          stroke-opacity="0.1"/>
    <line y1="-0.5" x2="398.671" y2="-0.5" transform="matrix(-0.000296535 -1 1 -0.000523676 601.118 400)" stroke="black"
          stroke-opacity="0.1"/>
    <line y1="-0.5" x2="398.671" y2="-0.5" transform="matrix(-0.000296535 -1 1 -0.000523676 631.118 398.671)"
          stroke="black" stroke-opacity="0.1"/>
    <line y1="-0.5" x2="398.671" y2="-0.5" transform="matrix(-0.000296535 -1 1 -0.000523676 661.118 400)" stroke="black"
          stroke-opacity="0.1"/>
    <line y1="-0.5" x2="398.671" y2="-0.5" transform="matrix(-0.000296535 -1 1 -0.000523676 691.118 400)" stroke="black"
          stroke-opacity="0.1"/>
    <line y1="-0.5" x2="398.671" y2="-0.5" transform="matrix(-0.000296535 -1 1 -0.000523676 721.118 398.671)"
          stroke="black" stroke-opacity="0.1"/>
    <line y1="-0.5" x2="398.671" y2="-0.5" transform="matrix(-0.000296535 -1 1 -0.000523676 751.118 400)" stroke="black"
          stroke-opacity="0.1"/>
    <line y1="-0.5" x2="398.671" y2="-0.5" transform="matrix(-0.000296535 -1 1 -0.000523676 781.118 398.671)"
          stroke="black" stroke-opacity="0.1"/>
    <line y1="-0.5" x2="398.671" y2="-0.5" transform="matrix(-0.000296535 -1 1 -0.000523676 811.118 400)" stroke="black"
          stroke-opacity="0.1"/>
    <line y1="-0.5" x2="398.671" y2="-0.5" transform="matrix(-0.000296535 -1 1 -0.000523676 841.118 398.671)"
          stroke="black" stroke-opacity="0.1"/>
    <line y1="-0.5" x2="398.671" y2="-0.5" transform="matrix(-0.000296535 -1 1 -0.000523676 871.118 400)" stroke="black"
          stroke-opacity="0.1"/>
    <line y1="-0.5" x2="398.671" y2="-0.5" transform="matrix(-0.000296535 -1 1 -0.000523676 901.118 400)" stroke="black"
          stroke-opacity="0.1"/>
    <line y1="-0.5" x2="398.671" y2="-0.5" transform="matrix(-0.000296535 -1 1 -0.000523676 931.118 398.671)"
          stroke="black" stroke-opacity="0.1"/>
    <line y1="-0.5" x2="398.671" y2="-0.5" transform="matrix(-0.000296535 -1 1 -0.000523676 961.118 400)" stroke="black"
          stroke-opacity="0.1"/>
    <line y1="-0.5" x2="398.671" y2="-0.5" transform="matrix(-0.000296535 -1 1 -0.000523676 991.118 400)" stroke="black"
          stroke-opacity="0.1"/>
    <line y1="-0.5" x2="398.671" y2="-0.5" transform="matrix(-0.000296535 -1 1 -0.000523676 1021.12 398.671)"
          stroke="black" stroke-opacity="0.1"/>
    <line y1="-0.5" x2="398.671" y2="-0.5" transform="matrix(-0.000296535 -1 1 -0.000523676 1051.12 400)" stroke="black"
          stroke-opacity="0.1"/>
    <line y1="-0.5" x2="398.671" y2="-0.5" transform="matrix(-0.000296535 -1 1 -0.000523676 1081.12 400)" stroke="black"
          stroke-opacity="0.1"/>
    <line y1="-0.5" x2="398.671" y2="-0.5" transform="matrix(-0.000296535 -1 1 -0.000523676 1111.12 398.671)"
          stroke="black" stroke-opacity="0.1"/>
    <line y1="-0.5" x2="398.671" y2="-0.5" transform="matrix(-0.000296535 -1 1 -0.000523676 1141.12 400)" stroke="black"
          stroke-opacity="0.1"/>
    <line y1="-0.5" x2="398.671" y2="-0.5" transform="matrix(-0.000296535 -1 1 -0.000523676 1171.12 400)" stroke="black"
          stroke-opacity="0.1"/>
    <line y1="-0.5" x2="398.671" y2="-0.5" transform="matrix(-0.000296535 -1 1 -0.000523676 1201.12 398.671)"
          stroke="black" stroke-opacity="0.1"/>
    <line y1="-0.5" x2="398.671" y2="-0.5" transform="matrix(-0.000296535 -1 1 -0.000523676 1231.12 400)" stroke="black"
          stroke-opacity="0.1"/>
    <line y1="-0.5" x2="398.671" y2="-0.5" transform="matrix(-0.000296535 -1 1 -0.000523676 1261.12 400)" stroke="black"
          stroke-opacity="0.1"/>
    <line y1="-0.5" x2="398.671" y2="-0.5" transform="matrix(-0.000296535 -1 1 -0.000523676 1291.12 398.671)"
          stroke="black" stroke-opacity="0.1"/>
    <line y1="-0.5" x2="398.671" y2="-0.5" transform="matrix(-0.000296535 -1 1 -0.000523676 1321.12 400)" stroke="black"
          stroke-opacity="0.1"/>
    <line y1="-0.5" x2="398.671" y2="-0.5" transform="matrix(-0.000296535 -1 1 -0.000523676 1351.12 400)" stroke="black"
          stroke-opacity="0.1"/>
    <line y1="-0.5" x2="398.671" y2="-0.5" transform="matrix(-0.000296535 -1 1 -0.000523676 1381.12 398.671)"
          stroke="black" stroke-opacity="0.1"/>
    <line y1="-0.5" x2="398.671" y2="-0.5" transform="matrix(-0.000296535 -1 1 -0.000523676 1411.12 400)" stroke="black"
          stroke-opacity="0.1"/>
    <line y1="-0.5" x2="398.671" y2="-0.5" transform="matrix(-0.000296535 -1 1 -0.000523676 1441.12 400)" stroke="black"
          stroke-opacity="0.1"/>
    <line y1="-0.5" x2="398.671" y2="-0.5" transform="matrix(-0.000296535 -1 1 -0.000523676 1471.12 398.671)"
          stroke="black" stroke-opacity="0.1"/>
    <line y1="-0.5" x2="398.671" y2="-0.5" transform="matrix(-0.000296535 -1 1 -0.000523676 1501.12 400)" stroke="black"
          stroke-opacity="0.1"/>
    <line y1="-0.5" x2="398.671" y2="-0.5" transform="matrix(-0.000296535 -1 1 -0.000523676 1531.12 400)" stroke="black"
          stroke-opacity="0.1"/>
    <line y1="-0.5" x2="398.671" y2="-0.5" transform="matrix(-0.000296535 -1 1 -0.000523676 1561.12 398.671)"
          stroke="black" stroke-opacity="0.1"/>
    <line y1="-0.5" x2="398.671" y2="-0.5" transform="matrix(-0.000296535 -1 1 -0.000523676 1591.12 400)" stroke="black"
          stroke-opacity="0.1"/>
    <line y1="-0.5" x2="398.671" y2="-0.5" transform="matrix(-0.000296535 -1 1 -0.000523676 1621.12 400)" stroke="black"
          stroke-opacity="0.1"/>
    <line y1="-0.5" x2="398.671" y2="-0.5" transform="matrix(-0.000296535 -1 1 -0.000523676 1651.12 398.671)"
          stroke="black" stroke-opacity="0.1"/>
    <line y1="-0.5" x2="398.671" y2="-0.5" transform="matrix(-0.000296535 -1 1 -0.000523676 1681.12 400)" stroke="black"
          stroke-opacity="0.1"/>
    <line y1="-0.5" x2="398.671" y2="-0.5" transform="matrix(-0.000296535 -1 1 -0.000523676 1711.12 398.671)"
          stroke="black" stroke-opacity="0.1"/>
    <line y1="-0.5" x2="398.671" y2="-0.5" transform="matrix(-0.000296535 -1 1 -0.000523676 1741.12 400)" stroke="black"
          stroke-opacity="0.1"/>
    <line y1="-0.5" x2="398.671" y2="-0.5" transform="matrix(-0.000296535 -1 1 -0.000523676 1771.12 398.671)"
          stroke="black" stroke-opacity="0.1"/>
    <line y1="-0.5" x2="398.671" y2="-0.5" transform="matrix(-0.000296535 -1 1 -0.000523676 1801.12 400)" stroke="black"
          stroke-opacity="0.1"/>
    <line y1="-0.5" x2="398.671" y2="-0.5" transform="matrix(-0.000296535 -1 1 -0.000523676 1831.12 400)" stroke="black"
          stroke-opacity="0.1"/>
    <line y1="-0.5" x2="398.671" y2="-0.5" transform="matrix(-0.000296535 -1 1 -0.000523676 1861.12 398.671)"
          stroke="black" stroke-opacity="0.1"/>
    <line y1="-0.5" x2="398.671" y2="-0.5" transform="matrix(-0.000296535 -1 1 -0.000523676 1891.12 400)" stroke="black"
          stroke-opacity="0.1"/>
    <line y1="-0.5" x2="398.671" y2="-0.5" transform="matrix(-0.000296535 -1 1 -0.000523676 1921.12 400)" stroke="black"
          stroke-opacity="0.1"/>
    <line y1="-0.5" x2="398.671" y2="-0.5" transform="matrix(-0.000296535 -1 1 -0.000523676 1951.12 398.671)"
          stroke="black" stroke-opacity="0.1"/>
    <line y1="-0.5" x2="398.671" y2="-0.5" transform="matrix(-0.000296535 -1 1 -0.000523676 1981.12 400)" stroke="black"
          stroke-opacity="0.1"/>
    <line y1="-0.5" x2="398.671" y2="-0.5" transform="matrix(-0.000296535 -1 1 -0.000523676 2011.12 400)" stroke="black"
          stroke-opacity="0.1"/>
    <line y1="-0.5" x2="398.671" y2="-0.5" transform="matrix(-0.000296535 -1 1 -0.000523676 2041.12 398.671)"
          stroke="black" stroke-opacity="0.1"/>
    <line y1="-0.5" x2="398.671" y2="-0.5" transform="matrix(-0.000296535 -1 1 -0.000523676 2071.12 400)" stroke="black"
          stroke-opacity="0.1"/>
    <line y1="-0.5" x2="398.671" y2="-0.5" transform="matrix(-0.000296535 -1 1 -0.000523676 2101.12 400)" stroke="black"
          stroke-opacity="0.1"/>
    <line y1="-0.5" x2="398.671" y2="-0.5" transform="matrix(-0.000296535 -1 1 -0.000523676 2131.12 398.671)"
          stroke="black" stroke-opacity="0.1"/>
    <line y1="-0.5" x2="398.671" y2="-0.5" transform="matrix(-0.000296535 -1 1 -0.000523676 2161.12 400)" stroke="black"
          stroke-opacity="0.1"/>
    <line y1="-0.5" x2="398.671" y2="-0.5" transform="matrix(-0.000296535 -1 1 -0.000523676 2191.12 400)" stroke="black"
          stroke-opacity="0.1"/>
    <line y1="-0.5" x2="398.671" y2="-0.5" transform="matrix(-0.000296535 -1 1 -0.000523676 2221.12 398.671)"
          stroke="black" stroke-opacity="0.1"/>
    <line y1="-0.5" x2="398.671" y2="-0.5" transform="matrix(-0.000296535 -1 1 -0.000523676 2251.12 400)" stroke="black"
          stroke-opacity="0.1"/>
    <line y1="-0.5" x2="398.671" y2="-0.5" transform="matrix(-0.000296535 -1 1 -0.000523676 2281.12 400)" stroke="black"
          stroke-opacity="0.1"/>
    <line y1="-0.5" x2="398.671" y2="-0.5" transform="matrix(-0.000296535 -1 1 -0.000523676 2311.12 398.671)"
          stroke="black" stroke-opacity="0.1"/>
    <line y1="-0.5" x2="398.671" y2="-0.5" transform="matrix(-0.000296535 -1 1 -0.000523676 2341.12 400)" stroke="black"
          stroke-opacity="0.1"/>
    <line y1="-0.5" x2="398.671" y2="-0.5" transform="matrix(-0.000296535 -1 1 -0.000523676 2371.12 400)" stroke="black"
          stroke-opacity="0.1"/>
    <line y1="-0.5" x2="398.671" y2="-0.5" transform="matrix(-0.000296535 -1 1 -0.000523676 2401.12 398.671)"
          stroke="black" stroke-opacity="0.1"/>
    <line y1="-0.5" x2="398.671" y2="-0.5" transform="matrix(-0.000296535 -1 1 -0.000523676 2431.12 400)" stroke="black"
          stroke-opacity="0.1"/>
    <line y1="-0.5" x2="398.671" y2="-0.5" transform="matrix(-0.000296535 -1 1 -0.000523676 2461.12 400)" stroke="black"
          stroke-opacity="0.1"/>
    <line y1="-0.5" x2="398.671" y2="-0.5" transform="matrix(-0.000296535 -1 1 -0.000523676 2491.12 400)" stroke="black"
          stroke-opacity="0.1"/>
    <line y1="-0.5" x2="398.671" y2="-0.5" transform="matrix(-0.000296535 -1 1 -0.000523676 2521.12 398.671)"
          stroke="black" stroke-opacity="0.1"/>
    <line y1="-0.5" x2="398.671" y2="-0.5" transform="matrix(-0.000296535 -1 1 -0.000523676 2551.12 400)" stroke="black"
          stroke-opacity="0.1"/>
</svg>
