<svg width="1115" height="272" viewBox="0 0 1115 272" fill="none" xmlns="http://www.w3.org/2000/svg">
    <g clip-path="url(#clip0_1_2)">
        <rect width="1115" height="272" rx="30" fill="white"/>
        <line x1="19.5" y1="271.994" x2="19.5" y2="-3" stroke="black" stroke-opacity="0.05"/>
        <line x1="39.5" y1="271.994" x2="39.5" y2="-3" stroke="black" stroke-opacity="0.05"/>
        <line x1="59.5" y1="271.994" x2="59.5" y2="-3" stroke="black" stroke-opacity="0.05"/>
        <line x1="79.5" y1="271.994" x2="79.5" y2="-3" stroke="black" stroke-opacity="0.05"/>
        <line x1="99.5" y1="271.994" x2="99.5" y2="-3" stroke="black" stroke-opacity="0.05"/>
        <line x1="119.5" y1="271.994" x2="119.5" y2="-3" stroke="black" stroke-opacity="0.05"/>
        <line x1="139.5" y1="271.994" x2="139.5" y2="-3" stroke="black" stroke-opacity="0.05"/>
        <line x1="159.5" y1="271.994" x2="159.5" y2="-3" stroke="black" stroke-opacity="0.05"/>
        <line x1="179.5" y1="271.994" x2="179.5" y2="-3" stroke="black" stroke-opacity="0.05"/>
        <line x1="199.5" y1="271.994" x2="199.5" y2="-3" stroke="black" stroke-opacity="0.05"/>
        <line x1="219.5" y1="271.994" x2="219.5" y2="-3" stroke="black" stroke-opacity="0.05"/>
        <line x1="239.5" y1="271.994" x2="239.5" y2="-3" stroke="black" stroke-opacity="0.05"/>
        <line x1="259.5" y1="271.994" x2="259.5" y2="-3" stroke="black" stroke-opacity="0.05"/>
        <line x1="279.5" y1="271.994" x2="279.5" y2="-3" stroke="black" stroke-opacity="0.05"/>
        <line x1="299.5" y1="271.994" x2="299.5" y2="-3" stroke="black" stroke-opacity="0.05"/>
        <line x1="319.5" y1="271.994" x2="319.5" y2="-3" stroke="black" stroke-opacity="0.05"/>
        <line x1="339.5" y1="271.994" x2="339.5" y2="-3" stroke="black" stroke-opacity="0.05"/>
        <line x1="359.5" y1="271.994" x2="359.5" y2="-3" stroke="black" stroke-opacity="0.05"/>
        <line x1="379.5" y1="271.994" x2="379.5" y2="-3" stroke="black" stroke-opacity="0.05"/>
        <line x1="399.5" y1="271.994" x2="399.5" y2="-3" stroke="black" stroke-opacity="0.05"/>
        <line x1="419.5" y1="271.994" x2="419.5" y2="-3" stroke="black" stroke-opacity="0.05"/>
        <line x1="439.5" y1="271.994" x2="439.5" y2="-3" stroke="black" stroke-opacity="0.05"/>
        <line x1="459.5" y1="271.994" x2="459.5" y2="-3" stroke="black" stroke-opacity="0.05"/>
        <line x1="479.5" y1="271.994" x2="479.5" y2="-3" stroke="black" stroke-opacity="0.05"/>
        <line x1="499.5" y1="271.994" x2="499.5" y2="-3" stroke="black" stroke-opacity="0.05"/>
        <line x1="519.5" y1="271.994" x2="519.5" y2="-3" stroke="black" stroke-opacity="0.05"/>
        <line x1="539.5" y1="271.994" x2="539.5" y2="-3" stroke="black" stroke-opacity="0.05"/>
        <line x1="559.5" y1="271.994" x2="559.5" y2="-3" stroke="black" stroke-opacity="0.05"/>
        <line x1="579.5" y1="271.994" x2="579.5" y2="-3" stroke="black" stroke-opacity="0.05"/>
        <line x1="599.5" y1="271.994" x2="599.5" y2="-3" stroke="black" stroke-opacity="0.05"/>
        <line x1="619.5" y1="271.994" x2="619.5" y2="-3" stroke="black" stroke-opacity="0.05"/>
        <line x1="639.5" y1="271.994" x2="639.5" y2="-3" stroke="black" stroke-opacity="0.05"/>
        <line x1="19.5" y1="271.994" x2="19.5" y2="-3" stroke="black" stroke-opacity="0.05"/>
        <line x1="39.5" y1="271.994" x2="39.5" y2="-3" stroke="black" stroke-opacity="0.05"/>
        <line x1="59.5" y1="271.994" x2="59.5" y2="-3" stroke="black" stroke-opacity="0.05"/>
        <line x1="79.5" y1="271.994" x2="79.5" y2="-3" stroke="black" stroke-opacity="0.05"/>
        <line x1="99.5" y1="271.994" x2="99.5" y2="-3" stroke="black" stroke-opacity="0.05"/>
        <line x1="119.5" y1="271.994" x2="119.5" y2="-3" stroke="black" stroke-opacity="0.05"/>
        <line x1="139.5" y1="271.994" x2="139.5" y2="-3" stroke="black" stroke-opacity="0.05"/>
        <line x1="159.5" y1="271.994" x2="159.5" y2="-3" stroke="black" stroke-opacity="0.05"/>
        <line x1="179.5" y1="271.994" x2="179.5" y2="-3" stroke="black" stroke-opacity="0.05"/>
        <line x1="199.5" y1="271.994" x2="199.5" y2="-3" stroke="black" stroke-opacity="0.05"/>
        <line x1="219.5" y1="271.994" x2="219.5" y2="-3" stroke="black" stroke-opacity="0.05"/>
        <line x1="239.5" y1="271.994" x2="239.5" y2="-3" stroke="black" stroke-opacity="0.05"/>
        <line x1="259.5" y1="271.994" x2="259.5" y2="-3" stroke="black" stroke-opacity="0.05"/>
        <line x1="279.5" y1="271.994" x2="279.5" y2="-3" stroke="black" stroke-opacity="0.05"/>
        <line x1="299.5" y1="271.994" x2="299.5" y2="-3" stroke="black" stroke-opacity="0.05"/>
        <line x1="319.5" y1="271.994" x2="319.5" y2="-3" stroke="black" stroke-opacity="0.05"/>
        <line x1="339.5" y1="271.994" x2="339.5" y2="-3" stroke="black" stroke-opacity="0.05"/>
        <line x1="359.5" y1="271.994" x2="359.5" y2="-3" stroke="black" stroke-opacity="0.05"/>
        <line x1="379.5" y1="271.994" x2="379.5" y2="-3" stroke="black" stroke-opacity="0.05"/>
        <line x1="399.5" y1="271.994" x2="399.5" y2="-3" stroke="black" stroke-opacity="0.05"/>
        <line x1="419.5" y1="271.994" x2="419.5" y2="-3" stroke="black" stroke-opacity="0.05"/>
        <line x1="439.5" y1="271.994" x2="439.5" y2="-3" stroke="black" stroke-opacity="0.05"/>
        <line x1="459.5" y1="271.994" x2="459.5" y2="-3" stroke="black" stroke-opacity="0.05"/>
        <line x1="479.5" y1="271.994" x2="479.5" y2="-3" stroke="black" stroke-opacity="0.05"/>
        <line x1="499.5" y1="271.994" x2="499.5" y2="-3" stroke="black" stroke-opacity="0.05"/>
        <line x1="519.5" y1="271.994" x2="519.5" y2="-3" stroke="black" stroke-opacity="0.05"/>
        <line x1="539.5" y1="271.994" x2="539.5" y2="-3" stroke="black" stroke-opacity="0.05"/>
        <line x1="559.5" y1="271.994" x2="559.5" y2="-3" stroke="black" stroke-opacity="0.05"/>
        <line x1="579.5" y1="271.994" x2="579.5" y2="-3" stroke="black" stroke-opacity="0.05"/>
        <line x1="599.5" y1="271.994" x2="599.5" y2="-3" stroke="black" stroke-opacity="0.05"/>
        <line x1="619.5" y1="271.994" x2="619.5" y2="-3" stroke="black" stroke-opacity="0.05"/>
        <line x1="639.5" y1="271.994" x2="639.5" y2="-3" stroke="black" stroke-opacity="0.05"/>
        <line x1="659.5" y1="271.994" x2="659.5" y2="-3" stroke="black" stroke-opacity="0.05"/>
        <line x1="679.5" y1="271.994" x2="679.5" y2="-3" stroke="black" stroke-opacity="0.05"/>
        <line x1="699.5" y1="271.994" x2="699.5" y2="-3" stroke="black" stroke-opacity="0.05"/>
        <line x1="719.5" y1="271.994" x2="719.5" y2="-3" stroke="black" stroke-opacity="0.05"/>
        <line x1="739.5" y1="271.994" x2="739.5" y2="-3" stroke="black" stroke-opacity="0.05"/>
        <line x1="759.5" y1="271.994" x2="759.5" y2="-3" stroke="black" stroke-opacity="0.05"/>
        <line x1="779.5" y1="271.994" x2="779.5" y2="-3" stroke="black" stroke-opacity="0.05"/>
        <line x1="799.5" y1="271.994" x2="799.5" y2="-3" stroke="black" stroke-opacity="0.05"/>
        <line x1="819.5" y1="271.994" x2="819.5" y2="-3" stroke="black" stroke-opacity="0.05"/>
        <line x1="839.5" y1="271.994" x2="839.5" y2="-3" stroke="black" stroke-opacity="0.05"/>
        <line x1="859.5" y1="271.994" x2="859.5" y2="-3" stroke="black" stroke-opacity="0.05"/>
        <line x1="879.5" y1="271.994" x2="879.5" y2="-3" stroke="black" stroke-opacity="0.05"/>
        <line x1="899.5" y1="271.994" x2="899.5" y2="-3" stroke="black" stroke-opacity="0.05"/>
        <line x1="919.5" y1="271.994" x2="919.5" y2="-3" stroke="black" stroke-opacity="0.05"/>
        <line x1="939.5" y1="271.994" x2="939.5" y2="-3" stroke="black" stroke-opacity="0.05"/>
        <line x1="959.5" y1="271.994" x2="959.5" y2="-3" stroke="black" stroke-opacity="0.05"/>
        <line x1="979.5" y1="271.994" x2="979.5" y2="-3" stroke="black" stroke-opacity="0.05"/>
        <line x1="999.5" y1="271.994" x2="999.5" y2="-3" stroke="black" stroke-opacity="0.05"/>
        <line x1="1019.5" y1="271.994" x2="1019.5" y2="-3" stroke="black" stroke-opacity="0.05"/>
        <line x1="1039.5" y1="271.994" x2="1039.5" y2="-3" stroke="black" stroke-opacity="0.05"/>
        <line x1="1059.5" y1="271.994" x2="1059.5" y2="-3" stroke="black" stroke-opacity="0.05"/>
        <line x1="1079.5" y1="271.994" x2="1079.5" y2="-3" stroke="black" stroke-opacity="0.05"/>
        <line x1="1099.5" y1="271.994" x2="1099.5" y2="-3" stroke="black" stroke-opacity="0.05"/>
    </g>
    <defs>
        <clipPath id="clip0_1_2">
            <rect width="1115" height="272" rx="30" fill="white"/>
        </clipPath>
    </defs>
</svg>
