<svg width="18" height="18" viewBox="0 0 18 18" fill="none" xmlns="http://www.w3.org/2000/svg">
    <g id="Group 67">
        <circle id="Ellipse 11" cx="9" cy="9" r="7.5" stroke="#070707" stroke-opacity="0.08" stroke-width="3"/>
        <path id="Ellipse 12"
              d="M9 1.5C9.98491 1.5 10.9602 1.69399 11.8701 2.0709C12.7801 2.44781 13.6069 3.00026 14.3033 3.6967C14.9997 4.39314 15.5522 5.21993 15.9291 6.12987C16.306 7.03982 16.5 8.01509 16.5 9C16.5 9.98491 16.306 10.9602 15.9291 11.8701C15.5522 12.7801 14.9997 13.6069 14.3033 14.3033C13.6069 14.9997 12.7801 15.5522 11.8701 15.9291C10.9602 16.306 9.98491 16.5 9 16.5C8.01509 16.5 7.03982 16.306 6.12987 15.9291C5.21993 15.5522 4.39314 14.9997 3.6967 14.3033C3.00026 13.6069 2.44781 12.7801 2.0709 11.8701C1.69399 10.9602 1.5 9.98491 1.5 9C1.5 8.01509 1.69399 7.03982 2.0709 6.12987C2.44781 5.21993 3.00026 4.39314 3.6967 3.6967C4.39314 3.00026 5.21993 2.44781 6.12987 2.0709C7.03982 1.69399 8.01509 1.5 9 1.5L9 1.5Z"
              stroke="#01BF64" stroke-width="3" stroke-linecap="round"/>
    </g>
</svg>
